<svg xmlns="http://www.w3.org/2000/svg" viewBox="0 0 234.1 118.7"><style>.st0{fill:none}.st1{fill:#00a1de}.st2{fill:#5a5a5a}</style><g id="Protection_Zone"><path class="st0" d="M-37.2 119.1H3.6v40.8h-40.8zM234.2 119H275v40.8h-40.8zM234.2-40.6H275V.2h-40.8zM-37.2-40.6H3.6V.2h-40.8z"/></g><g id="certs"><path class="st1" d="M108.8 109.3H99v-9.9h9.8zM93 109.3h-9.9v-9.9H93zM67.2 109.3v9.8h9.9v-9.8zM51.3 109.3v9.8h9.9v-9.8zM35.4 109.3v9.8h9.9v-9.8zM3.6 99.4v9.9h9.9v-9.9zM29.4 109.3h-9.9v-9.9h9.9zM234.2 9.5V5.4h-4.9V.3h-5v5.1h-3.4v4.1h3.4v9.1c0 1 .1 1.9.3 2.7.2.8.5 1.6 1 2.3.5.6 1.2 1.2 2 1.5.8.4 1.9.6 3.2.6.5 0 1.1 0 1.7-.1.6-.1 1.1-.2 1.6-.4h.1L234 21l-.1.1c-.3.1-.6.2-1 .3-.4.1-.7.1-1.1.1-1.1 0-1.7-.3-2-.8-.3-.6-.5-1.3-.5-2.1V9.5h4.9zM142.1 13.3c.1-1.3.7-2.4 1.7-3.3 1-.9 2.3-1.3 3.7-1.3.8 0 1.5.1 2 .4.6.3 1.1.6 1.4 1 .4.4.6.9.8 1.5.2.5.3 1.1.3 1.7h-9.9zm12.3-5.8c-.9-.9-1.9-1.6-3.1-2-1.2-.5-2.5-.7-3.8-.7-1.5 0-2.9.3-4.2.8-1.3.5-2.4 1.2-3.3 2.2-.9.9-1.7 2-2.2 3.4-.5 1.3-.8 2.8-.8 4.4 0 1.6.3 3.1.8 4.4.5 1.3 1.3 2.4 2.2 3.3.9.9 2.1 1.6 3.4 2 1.3.5 2.7.7 4.3.7 3.7 0 6.6-1.3 8.5-4l.1-.1-3.4-2.7-.1.1c-.5.8-1.2 1.4-2.1 1.8-.8.4-1.9.7-3.1.7-.7 0-1.4-.1-2-.4-.6-.2-1.2-.6-1.7-1s-.9-.9-1.2-1.5c-.3-.5-.5-1.2-.5-1.8h15V17v-1.4c0-1.8-.2-3.4-.7-4.7-.6-1.4-1.3-2.5-2.1-3.4M124.8 11.1c.4-.6 1-1.1 1.7-1.4.7-.4 1.5-.5 2.3-.5.8 0 1.5.2 2.3.5.7.4 1.3.8 1.7 1.3l.1.1 3.4-3 .1-.1-.1-.1c-.8-1-1.9-1.7-3.3-2.3-1.4-.5-2.8-.8-4.2-.8-1.5 0-2.8.2-4.1.7-1.3.5-2.4 1.2-3.4 2.1-1 .9-1.7 2-2.3 3.3-.6 1.3-.8 2.8-.8 4.3 0 1.6.3 3.1.8 4.4.6 1.3 1.3 2.4 2.3 3.3 1 .9 2.1 1.6 3.4 2.1 1.3.5 2.7.7 4.2.7s2.9-.2 4.2-.7c1.3-.5 2.3-1.2 3.2-2.1l.1-.1-3.1-3.2-.1-.1-.1.1c-.5.6-1.1 1-1.8 1.3-.7.3-1.5.4-2.3.4-.9 0-1.7-.2-2.4-.5-.7-.4-1.3-.8-1.7-1.4-.5-.6-.8-1.3-1-2-.2-.7-.3-1.5-.3-2.3 0-.8.1-1.5.3-2.3.1-.5.5-1.1.9-1.7M194.9 7.3c-.6-.7-1.4-1.4-2.3-1.8-.9-.5-2.1-.7-3.3-.7-1.5 0-2.8.4-3.9 1.1-1 .7-1.8 1.5-2.2 2.4v-3h-4.9v19.9h5.1V14.3c0-.6.1-1.3.3-1.9.2-.6.5-1.2.8-1.7.4-.5.8-.9 1.4-1.2.6-.3 1.2-.5 2-.5s1.4.2 1.9.5.8.7 1.1 1.2c.3.5.4 1.1.5 1.7.1.6.1 1.2.1 1.8v11h5.1V12.9c0-1-.1-2-.4-3-.3-1-.7-1.9-1.3-2.6M165.7 9.2c.6-.3 1.4-.5 2.1-.5.9 0 1.7.2 2.5.6.7.4 1.3.9 1.8 1.5l.1.1 3.3-3-.1-.1c-.8-1-1.9-1.8-3.3-2.3-1.4-.5-2.8-.7-4.2-.7-1 0-2 .1-2.9.4-.9.2-1.8.6-2.5 1.1-.7.5-1.4 1.2-1.8 2-.5.8-.7 1.8-.7 2.9 0 .9.2 1.7.5 2.4.3.6.8 1.2 1.3 1.6.6.4 1.2.8 1.9 1 .7.3 1.4.5 2.2.6 1.5.4 2.6.7 3.4 1.1.7.3 1.1.9 1.1 1.7 0 .4-.1.8-.3 1.1-.2.3-.4.5-.7.7-.3.2-.6.3-1 .4-.4.1-.7.1-1.1.1-1 0-2-.2-2.9-.7-.9-.5-1.6-1-2.1-1.7l-.1-.1-3.4 3.2.1.1c1 1 2.2 1.9 3.6 2.4 1.5.6 3 .8 4.5.8 1.1 0 2.1-.1 3.1-.3 1-.2 1.9-.6 2.7-1.1.8-.5 1.4-1.2 1.8-2.1.5-.8.7-1.9.7-3.1 0-1-.2-1.8-.6-2.5-.4-.7-.9-1.3-1.5-1.7-.6-.5-1.3-.8-2.1-1.1-.8-.3-1.5-.5-2.2-.7-1.4-.3-2.4-.6-3.2-1-.7-.3-1-.8-1-1.5.1-.8.4-1.3 1-1.6M204.5 13.3c.1-1.3.7-2.4 1.7-3.3 1-.9 2.3-1.3 3.7-1.3.8 0 1.5.1 2 .4.6.3 1.1.6 1.4 1 .4.4.6.9.8 1.5.2.5.3 1.1.3 1.7h-9.9zm12.3-5.8c-.9-.9-1.9-1.6-3.1-2-1.2-.5-2.5-.7-3.8-.7-1.5 0-2.9.3-4.2.8-1.3.5-2.4 1.2-3.3 2.2-.9.9-1.7 2-2.2 3.4-.5 1.3-.8 2.8-.8 4.4 0 1.6.3 3.1.8 4.4.5 1.3 1.3 2.4 2.2 3.3.9.9 2.1 1.6 3.4 2 1.3.5 2.7.7 4.3.7 3.7 0 6.6-1.3 8.5-4l.1-.1-3.4-2.7-.1.1c-.5.8-1.2 1.4-2.1 1.8-.8.4-1.9.7-3.1.7-.7 0-1.4-.1-2-.4-.6-.2-1.2-.6-1.7-1s-.9-.9-1.2-1.5c-.3-.5-.5-1.2-.5-1.8h15V17v-1.4c0-1.8-.2-3.4-.7-4.7-.6-1.4-1.3-2.5-2.1-3.4"/><path class="st2" d="M157.8 66.2c-2.1-1.7-5.3-3-9.7-3.9-3.1-.6-5.3-1.4-6.7-2.3-1.4-.9-2.1-2.3-2.1-4 0-1 .2-1.9.7-2.6.4-.7 1-1.3 1.8-1.8.7-.5 1.6-.8 2.5-1 1-.2 1.9-.3 2.9-.3 2.1 0 3.9.5 5.5 1.5s2.8 2.2 3.6 3.8l4.1-3.1c-1.2-2.1-3-3.7-5.5-4.9-2.4-1.2-4.9-1.7-7.5-1.7-1.7 0-3.3.2-4.9.6-1.6.4-3 1.1-4.2 1.9-1.2.9-2.2 2-3 3.3-.7 1.3-1.1 3-1.1 4.9 0 1.7.3 3.2 1 4.3.7 1.2 1.6 2.1 2.6 2.9 1.1.8 2.2 1.3 3.4 1.7 1.2.4 2.4.7 3.5 1 3.5.8 6.2 1.8 8.1 2.7 1.9 1 2.8 2.4 2.8 4.4 0 1.2-.2 2.2-.7 3-.5.8-1.1 1.5-1.9 2-.8.5-1.7.9-2.8 1.1-1.1.2-2.2.3-3.3.3-2.2 0-4.2-.6-6.1-1.7-1.9-1.1-3.2-2.5-4.2-4.1l-4.3 3.2c1.7 2.5 3.9 4.3 6.5 5.5 2.6 1.2 5.4 1.7 8.2 1.7 1.7 0 3.4-.2 5-.6 1.7-.4 3.2-1.1 4.5-2 1.3-.9 2.4-2.1 3.2-3.6.8-1.4 1.2-3.2 1.2-5.3 0-2.9-1-5.2-3.1-6.9m-37.5-31.5H111v11h-6.7v7.6h6.7V71c0 1.8.2 3.6.5 5.2s1 3 1.9 4.3c.9 1.2 2.2 2.2 3.8 2.9 1.6.7 3.6 1.1 6.2 1.1 1.1 0 2.2-.1 3.3-.3 1.2-.2 2.2-.4 3-.8l-.3-7.4c-.6.3-1.2.5-2 .6-.7.1-1.4.2-2.1.2-2.1 0-3.5-.6-4.1-1.7-.6-1.1-.9-2.5-.9-4.2V53.2h9.5v-7.6h-9.5V34.7zm-21.7 9.8c-2.5 0-4.8.7-6.7 2.1-1.9 1.4-3.4 3.2-4.4 5.4h-.2v-6.3h-9.1v38h9.5V63.3c0-.7.1-1.6.4-2.8.3-1.2.8-2.3 1.5-3.4s1.8-2.1 3.1-2.8c1.3-.8 3.1-1.2 5.2-1.2.4 0 .9 0 1.3.1s1 .2 1.6.3v-8.7c-.3-.1-.7-.2-1.1-.2-.4 0-.8-.1-1.1-.1M45.2 60.8c.2-2.7 1.3-4.9 3.3-6.6 2-1.7 4.4-2.6 7.2-2.6 1.5 0 2.9.3 4 .8s2.1 1.2 2.8 2c.7.8 1.3 1.8 1.6 2.9.3 1.1.5 2.3.5 3.5H45.2zM69 49.7c-1.6-1.7-3.6-3-5.8-3.9-2.2-.9-4.7-1.3-7.3-1.3-2.8 0-5.5.5-8 1.5s-4.6 2.3-6.4 4.1c-1.8 1.8-3.2 3.9-4.2 6.4-1 2.5-1.5 5.3-1.5 8.3 0 3.1.5 5.9 1.5 8.3 1 2.5 2.5 4.5 4.3 6.2 1.8 1.7 4 3 6.5 3.9 2.5.9 5.2 1.4 8.2 1.4 7.1 0 12.6-2.5 16.3-7.6l-6.3-5.1c-1.1 1.5-2.4 2.7-4 3.6-1.6.9-3.6 1.3-6 1.3-1.4 0-2.7-.2-4-.7-1.3-.5-2.4-1.1-3.4-1.9-1-.8-1.8-1.8-2.4-2.9-.6-1.1-1-2.4-1.1-3.8h28.9c.1-.4.1-.8.1-1.3v-1.3c0-3.4-.5-6.4-1.4-9-1.1-2.3-2.4-4.5-4-6.2m-56 6.6c.9-1.2 2-2.1 3.3-2.8 1.3-.7 2.8-1.1 4.6-1.1 1.5 0 3 .4 4.5 1.1 1.5.7 2.6 1.6 3.3 2.7l6.5-5.7c-1.5-1.8-3.6-3.3-6.2-4.3-2.6-1.1-5.3-1.6-8.1-1.6s-5.4.5-7.9 1.4c-2.5.9-4.6 2.3-6.5 4-1.9 1.7-3.3 3.8-4.4 6.3C1 58.8.5 61.5.5 64.6c0 3.2.5 6 1.6 8.5s2.6 4.6 4.4 6.3c1.9 1.7 4.1 3.1 6.6 4 2.5.9 5.2 1.3 8 1.3 2.9 0 5.5-.5 8-1.4 2.5-.9 4.5-2.2 6.1-3.9l-5.9-6c-.9 1.1-2.1 1.9-3.6 2.5-1.5.6-3 .9-4.4.9-1.8 0-3.4-.4-4.7-1.1-1.3-.7-2.5-1.6-3.4-2.8-.9-1.2-1.6-2.5-2-3.9s-.7-2.9-.7-4.4c0-1.5.2-2.9.6-4.4.4-1.4 1.1-2.7 1.9-3.9"/></g></svg>
